<?xml version="1.0" encoding="UTF-8"?>
<svg width="447px" height="137px" viewBox="0 0 447 137" version="1.1" xmlns="http://www.w3.org/2000/svg" xmlns:xlink="http://www.w3.org/1999/xlink">
    <title>Group 2</title>
    <defs>
        <linearGradient x1="50%" y1="0%" x2="50%" y2="100%" id="linearGradient-1">
            <stop stop-color="#F7D447" offset="0%"></stop>
            <stop stop-color="#CB2656" offset="100%"></stop>
        </linearGradient>
    </defs>
    <g id="Page-1" stroke="none" stroke-width="1" fill="none" fill-rule="evenodd">
        <g id="A3" transform="translate(-277.000000, -85.000000)" fill-rule="nonzero">
            <g id="Group-2" transform="translate(277.000000, 85.000000)">
                <path d="M16.0850057,38.9752288 L16.0850057,131.569989 L0.00883144531,136.3007 L0,136.3007 L0,38.9752288 L16.0850057,38.9752288 Z M265.069355,36.810936 C270.653772,36.810936 275.699471,37.8265522 280.209396,39.8548408 C284.713433,41.8801856 288.543336,44.5384506 291.699106,47.8296359 C294.848988,51.1208212 297.283523,54.9036236 298.996824,59.1839308 C300.70718,63.4642379 301.563831,67.9035111 301.563831,72.4958627 C301.563831,76.9145291 300.70718,81.2389935 298.996824,85.4751435 C297.283523,89.7112934 294.848988,93.5176463 291.699106,96.8971461 C288.543336,100.276646 284.713433,103.002619 280.209396,105.075064 C275.699471,107.14751 270.653772,108.186677 265.069355,108.186677 C262.814392,108.186677 260.515273,107.915846 258.17494,107.37124 C255.828719,106.832522 253.647352,106.090681 251.619063,105.142772 C249.590775,104.197808 247.812711,103.138034 246.278983,101.966396 C244.748199,100.797701 243.620718,99.5318606 242.899483,98.1806495 L242.08699,98.1806495 L242.08699,128.866978 L226.949893,133.730161 L226.949893,38.9746401 L242.08699,38.9746401 L242.08699,46.5461325 L242.764068,46.5461325 C244.203593,43.752452 246.93251,41.4327257 250.941986,39.5840098 C254.951462,37.7382377 259.661566,36.810936 265.069355,36.810936 Z M42.9849994,38.9737569 L42.9849994,72.3625078 C42.9849994,79.7544276 44.7836704,85.2505304 48.3927877,88.8537601 C51.9930736,92.4599336 57.0417165,94.2615484 63.529885,94.2615484 C66.3206217,94.2615484 69.0495383,93.7669875 71.7048595,92.771978 C74.3660684,91.7857999 76.6857947,90.3403867 78.6699261,88.4504574 C80.6511136,86.5546405 82.2496053,84.2584647 83.4683447,81.5560424 C84.6841403,78.8506763 85.2935101,75.7891086 85.2935101,72.3625078 L85.1580946,38.9737569 L101.2431,38.9737569 L101.2431,105.886674 L86.2384747,105.886674 L86.2384747,97.9118791 L85.5613972,97.9118791 C84.8401625,99.2630903 83.7362319,100.546594 82.2496053,101.762389 C80.7659224,102.978185 79.0084648,104.040902 76.9772324,104.938766 C74.9518876,105.842517 72.6763185,106.560808 70.153469,107.10247 C67.6306194,107.644132 65.0165116,107.914963 62.3140894,107.914963 C56.0025498,107.914963 50.618312,107.10247 46.1613759,105.480428 C41.6985522,103.858386 38.0511653,101.515109 35.2103837,98.4505973 C32.3725459,95.3890296 30.2765496,91.6709911 28.9253385,87.2994257 C27.5741273,82.9308041 26.8970498,77.9498689 26.8970498,72.3625078 L26.8970498,38.9737569 L42.9849994,38.9737569 Z M357.372972,36.5383387 C360.708314,36.900428 363.840533,37.6658199 366.769629,38.8374583 C369.695782,40.0090967 372.424698,41.6752961 374.947548,43.8390002 C380.084505,48.3459811 383.146073,54.0658138 384.138139,61.0073298 C384.497284,63.3506067 384.567936,65.9205572 384.341262,68.711294 C384.114588,71.5049745 383.59942,73.9365658 382.786927,76.0090116 L320.068947,76.1444271 C319.798116,78.9381076 320.157261,81.5993165 321.149327,84.1192222 C322.768425,88.4466304 325.314825,91.670108 328.785583,93.7837672 C332.253397,95.9033141 336.151009,97.0543458 340.478417,97.2309747 C345.971576,97.2309747 351.06732,96.4008188 355.753873,94.7316757 C360.437483,93.0625325 364.223229,90.2482453 367.108168,86.2829263 C368.459379,87.0071048 369.81059,87.7489462 371.161802,88.5113944 C372.513013,89.2797301 373.911325,90.0245153 375.353794,90.7428062 C374.002583,92.9977686 372.330496,95.0466639 370.352252,96.892436 C368.368121,98.7411518 366.227967,100.339643 363.931792,101.693798 C361.632672,103.04501 359.198137,104.172491 356.63113,105.070354 C354.06118,105.971162 351.561881,106.648239 349.130289,107.098643 C346.242407,107.549047 343.133738,107.75217 339.804283,107.708013 C336.468941,107.660912 333.357328,107.186957 330.475333,106.289094 C325.788779,104.937883 321.911775,102.909594 318.850207,100.204228 C315.785696,97.5018057 313.445363,94.440238 311.823321,91.0136372 C310.198335,87.5899802 309.297527,83.8719418 309.117954,79.8624656 C308.935438,75.8559332 309.432943,71.8641199 310.604581,67.898801 C311.596647,64.6547168 312.968465,61.546048 314.725922,58.5727947 C316.486324,55.5995415 318.532275,52.8500182 320.878496,50.3271686 C323.221773,47.8043191 325.856487,45.5758511 328.785583,43.6358769 C331.714679,41.6988466 334.799797,40.1445122 338.043882,38.9728738 C344.352477,36.7208552 350.796489,35.9083623 357.372972,36.5383387 Z M155.308914,36.9472346 C165.403256,36.9472346 173.086614,39.6761512 178.356043,45.125153 C183.628415,50.5800424 186.266074,58.8933762 186.266074,70.0651545 L186.266074,105.885497 L170.316484,105.885497 L170.316484,72.3613303 C170.316484,64.5219507 168.850464,58.9375334 165.918424,55.6021909 C162.989328,52.2697922 158.285111,50.6006491 151.796943,50.6006491 C148.90906,50.6006491 146.050616,51.1393672 143.212778,52.2197474 C140.37494,53.3060151 137.849147,54.836799 135.641285,56.8179866 C133.433424,58.8021179 131.631809,61.2101587 130.233497,64.0509403 C128.838129,66.888778 128.140445,70.1122556 128.140445,73.7154853 L128.140445,105.885497 L112.055439,105.885497 L112.055439,38.9725794 L127.192536,38.9725794 L127.192536,50.4652336 L127.869614,50.4652336 C128.767477,48.9344497 130.101025,47.3801153 131.858483,45.8022304 C133.615941,44.2272894 135.661892,42.7818761 138.008113,41.4748222 C140.35139,40.1707122 142.986104,39.090332 145.918144,38.2336818 C148.844296,37.3770316 151.973572,36.9472346 155.308914,36.9472346 Z M214.786638,38.9740513 L214.786638,105.884025 L198.701632,105.884025 L198.701632,38.9740513 L214.786638,38.9740513 Z M439.6947,36.672871 C441.134226,36.7670731 442.46483,36.8789381 443.680626,37.0143536 C444.902309,37.1497691 446.003296,37.4412068 446.992418,37.8916105 L444.831658,49.3813208 C441.319686,48.2096824 437.848928,47.579706 434.425271,47.4884477 C426.853779,47.308875 420.816014,50.1025555 416.309033,55.8694893 C414.866564,57.6711042 413.674319,59.5433706 412.72641,61.4774571 C411.781446,63.4174313 410.945402,65.4221694 410.227111,67.4946152 C409.688393,69.29623 409.232102,71.1007887 408.872956,72.8994597 C408.513811,74.7040184 408.151722,76.508577 407.792576,78.3072481 L402.929394,105.611133 L392.249232,105.611133 L403.738943,38.7011597 L414.666384,38.7011597 L411.849153,51.8129121 C413.471195,49.2017481 415.361125,46.9497296 417.527773,45.0539126 C419.688533,43.1639833 421.984709,41.5860985 424.422188,40.3261456 C426.853779,39.0632489 429.373685,38.138891 431.990736,37.5530718 C434.6019,36.9672526 437.171851,36.672871 439.6947,36.672871 Z M265.069355,50.5997659 C262.093158,50.5997659 259.275927,51.1208212 256.620605,52.1541003 C253.96234,53.193267 251.619063,54.6563431 249.590775,56.5492162 C247.56543,58.4391455 245.963995,60.7382651 244.792356,63.4406874 C243.620718,66.1431097 243.034899,69.1664078 243.034899,72.4958627 C243.034899,75.9254073 243.644268,78.986975 244.860064,81.6923411 C246.07586,84.3918195 247.700846,86.6909391 249.72619,88.5838122 C251.754479,90.4766853 254.094812,91.9191547 256.756021,92.9082766 C259.411342,93.9032861 262.184416,94.397847 265.069355,94.397847 C267.95135,94.397847 270.653772,93.9032861 273.179565,92.9082766 C275.699471,91.9191547 277.886726,90.4766853 279.732498,88.5838122 C281.57827,86.6909391 283.023683,84.3918195 284.059906,81.6923411 C285.096129,78.986975 285.61424,75.9254073 285.61424,72.4958627 C285.61424,69.2547222 285.096129,66.2785252 284.059906,63.5761029 C283.023683,60.8736806 281.57827,58.574561 279.732498,56.6816879 C277.886726,54.7917586 275.699471,53.305132 273.179565,52.221808 C270.653772,51.1414279 267.95135,50.5997659 265.069355,50.5997659 Z M352.509789,46.5443662 C349.083188,46.5443662 345.75079,46.9712194 342.506705,47.8249258 C339.262621,48.6845198 336.262874,49.9915737 333.516294,51.7460875 C330.766771,53.5035451 328.402887,55.6643054 326.4217,58.234256 C324.437568,60.8012628 322.995099,63.7539093 322.094291,67.0892518 C322.365122,67.1775663 323.51321,67.2246673 325.541499,67.2246673 C327.566844,67.2246673 330.092637,67.2482179 333.110048,67.2894313 C336.130402,67.3365323 339.483407,67.3600828 343.180839,67.3600828 L354.267247,67.3600828 C357.961735,67.3600828 361.520807,67.3365323 364.944464,67.2894313 C368.368121,67.2482179 371.297217,67.2246673 373.731752,67.2246673 C373.278405,60.7364989 371.114701,55.734957 367.243584,52.2170979 C363.366579,48.7051265 358.456296,46.8122534 352.509789,46.5443662 Z" id="Combined-Shape" fill="#012816"></path>
                <path d="M207.000835,-1.42108547e-14 C206.732948,8.1278735 200.079926,14.6366487 191.887289,14.6366487 C191.866682,14.6366487 191.849019,14.6337049 191.825469,14.6337049 C191.825469,14.6454801 191.825469,14.6543116 191.828412,14.663143 C191.849019,14.663143 191.866682,14.6601992 191.887289,14.6601992 C200.079926,14.6601992 206.732948,21.1719182 207.000835,29.2968479 C207.268723,21.1895811 213.89525,14.6925812 222.061394,14.663143 L222.061394,14.6337049 C213.89525,14.6072105 207.268723,8.11021061 207.000835,-1.42108547e-14" id="Fill-13" fill="url(#linearGradient-1)"></path>
            </g>
        </g>
    </g>
</svg>